# xmcd
#
# Track frame offsets: 
#        150
#        13569
#        31927
#        50939
#        69328
#        80768
#        94566
#        114786
#        134148
#        153920
#        169723
#        189380
#
# Disc length: 2715 seconds
#
# Revision: 0
# Processed by: cddbd v1.5.2PL0 Copyright (c) Steve Scherf et al.
# Submitted via: ExactAudioCopy v0.95b4
#
DISCID=960a990c
DTITLE=Family Coal - Ain't Tryin' to Make Nobody Happy
DYEAR=2008
DGENRE=Bluegrass
TTITLE0=Little Maggie
TTITLE1=Listening to the Rain
TTITLE2=Rough and Rocky
TTITLE3=I Know You Rider
TTITLE4=Salt Creek
TTITLE5=Rabbit in a Log
TTITLE6=Louis Collins
TTITLE7=House of the Rising Sun
TTITLE8=Jasper
TTITLE9=Peach Pickin' Time
TTITLE10=Mountain Dew
TTITLE11=Stealin'
EXTD=
EXTT0=
EXTT1=
EXTT2=
EXTT3=
EXTT4=
EXTT5=
EXTT6=
EXTT7=
EXTT8=
EXTT9=
EXTT10=
EXTT11=
PLAYORDER=
